HIERARCHY
ROOT Hips
{
 OFFSET 0.000000 0.000000 0.000000
 CHANNELS 6 Xposition Yposition Zposition Yrotation Xrotation Zrotation
 JOINT Chest
 {
  OFFSET 0.000000 9.585900 0.002600
  CHANNELS 3 Yrotation Xrotation Zrotation
  JOINT Chest2
  {
   OFFSET 0.000000 9.601200 -0.005300
   CHANNELS 3 Yrotation Xrotation Zrotation
   JOINT Chest3
   {
    OFFSET 0.000000 9.561800 0.000000
    CHANNELS 3 Yrotation Xrotation Zrotation
    JOINT Chest4
    {
     OFFSET 0.000000 9.552100 0.000000
     CHANNELS 3 Yrotation Xrotation Zrotation
     JOINT Neck
     {
      OFFSET 0.000000 14.453000 0.000000
      CHANNELS 3 Yrotation Xrotation Zrotation
      JOINT Head
      {
       OFFSET 0.000000 8.936500 -0.011300
       CHANNELS 3 Yrotation Xrotation Zrotation
       End Site
       {
        OFFSET 0.000000 17.073600 -0.006000
       }
      }
     }
     JOINT RightCollar
     {
      OFFSET -2.921100 9.558500 0.000000
      CHANNELS 3 Yrotation Xrotation Zrotation
      JOINT RightShoulder
      {
       OFFSET -13.519700 0.000000 0.000000
       CHANNELS 3 Yrotation Xrotation Zrotation
       JOINT RightElbow
       {
        OFFSET 0.000000 -29.696600 0.000000
        CHANNELS 3 Yrotation Xrotation Zrotation
        JOINT RightWrist
        {
         OFFSET 0.000000 -24.004700 0.000000
         CHANNELS 3 Yrotation Xrotation Zrotation
         End Site
         {
          OFFSET 0.000000 -17.728500 0.000000
         }
        }
       }
      }
     }
     JOINT LeftCollar
     {
      OFFSET 2.921100 9.558500 0.000000
      CHANNELS 3 Yrotation Xrotation Zrotation
      JOINT LeftShoulder
      {
       OFFSET 13.519700 0.000000 0.000000
       CHANNELS 3 Yrotation Xrotation Zrotation
       JOINT LeftElbow
       {
        OFFSET 0.000000 -29.696600 0.000000
        CHANNELS 3 Yrotation Xrotation Zrotation
        JOINT LeftWrist
        {
         OFFSET 0.000000 -24.004700 0.000000
         CHANNELS 3 Yrotation Xrotation Zrotation
         End Site
         {
          OFFSET 0.000000 -17.728500 0.000000
         }
        }
       }
      }
     }
    }
   }
  }
 }
 JOINT RightHip
 {
  OFFSET -7.771700 -0.012900 -0.001300
  CHANNELS 3 Yrotation Xrotation Zrotation
  JOINT RightKnee
  {
   OFFSET 0.000000 -40.869800 0.001200
   CHANNELS 3 Yrotation Xrotation Zrotation
   JOINT RightAnkle
   {
    OFFSET 0.000000 -39.717900 0.002100
    CHANNELS 3 Yrotation Xrotation Zrotation
    JOINT RightToe
    {
     OFFSET 0.000000 -4.965400 11.033500
     CHANNELS 3 Yrotation Xrotation Zrotation
     End Site
     {
      OFFSET 0.000000 -1.423100 5.872300
     }
    }
   }
  }
 }
 JOINT LeftHip
 {
  OFFSET 7.771700 -0.012900 -0.001300
  CHANNELS 3 Yrotation Xrotation Zrotation
  JOINT LeftKnee
  {
   OFFSET 0.000000 -40.869800 0.001200
   CHANNELS 3 Yrotation Xrotation Zrotation
   JOINT LeftAnkle
   {
    OFFSET 0.000000 -39.717900 0.002100
    CHANNELS 3 Yrotation Xrotation Zrotation
    JOINT LeftToe
    {
     OFFSET 0.000000 -4.965400 11.033500
     CHANNELS 3 Yrotation Xrotation Zrotation
     End Site
     {
      OFFSET 0.000000 -1.423100 5.872300
     }
    }
   }
  }
 }
}
MOTION
Frames: 5
Frame Time: 0.008333
0.000000 85.388000 0.000000 0.000000 -5.767877 0.000000 0.000000 11.653817 0.000000 0.000000 -5.885947 0.000000 0.000000 -0.000000 0.000000 0.000000 -0.000000 0.000000 0.000000 12.528835 0.000000 0.000000 0.711642 0.000000 0.000000 -0.000000 0.000000 0.000000 0.000000 -90.000000 0.000000 -2.309062 0.000000 0.000000 2.309062 0.000000 0.000000 -0.000000 0.000000 0.000000 -0.000000 90.000000 0.000000 -2.309062 0.000000 0.000000 2.309062 0.000000 0.000000 8.520406 0.000000 0.000000 1.905762 0.000000 -0.000000 -4.658285 0.000000 0.000000 -0.000000 0.000000 0.000000 8.520406 0.000000 0.000000 1.905762 0.000000 -0.000000 -4.658285 0.000000 0.000000 -0.000000 0.000000
-223.302785 57.510232 135.276634 179.156327 -28.616874 -1.877338 0.420287 19.209767 1.855359 -0.003650 2.291361 0.228446 0.029368 3.733755 0.370012 0.251639 16.593370 1.695773 0.049382 13.314835 0.489340 -0.102204 -11.067830 0.906061 3.474040 -1.166083 -1.419515 13.457731 -21.195783 -20.488717 102.049579 -59.960160 -57.804960 15.186321 -19.674265 -47.194338 -7.325511 -4.163566 -2.198066 0.591171 -14.891310 2.728619 -95.695341 -60.839360 62.711025 -14.413151 -3.657660 21.072230 3.025514 -47.245468 -3.812815 -11.104257 68.262414 -14.741817 5.634030 23.091914 2.455281 -1.001861 -16.015679 6.496213 -8.349458 -44.972919 1.693587 31.414572 70.934012 34.505021 -14.753181 1.209290 -5.238763 0.200995 0.247533 0.069380
-223.313354 57.507554 135.278774 179.161211 -28.618861 -1.860601 0.441085 19.171476 1.840640 -0.018661 2.307511 0.232025 0.040100 3.717074 0.365593 0.274707 16.565258 1.689332 0.065195 13.424253 0.536044 -0.090008 -10.864398 0.987548 3.365050 -1.071059 -1.443736 13.057061 -21.010617 -20.350166 102.534782 -60.317351 -58.752568 15.046760 -19.506198 -47.122685 -7.266302 -4.089125 -2.175031 0.894589 -14.856220 2.634745 -96.418712 -61.516807 63.224296 -14.475892 -3.568030 20.702927 3.106435 -47.247594 -3.905892 -11.077910 68.272460 -14.673755 5.633646 23.108854 2.463169 -1.008121 -16.029302 6.494960 -8.406839 -44.986452 1.685594 31.539038 70.932377 34.591225 -14.723649 1.237355 -5.221797 0.176942 0.225887 0.052687
-223.321677 57.505267 135.279728 179.177120 -28.634650 -1.867574 0.435528 19.177916 1.840889 0.006934 2.273353 0.225644 0.016158 3.747575 0.372531 0.318629 16.517686 1.668206 0.079007 13.530633 0.590123 -0.084401 -10.666680 1.083617 3.266285 -0.994786 -1.443606 12.700367 -20.852732 -20.235603 102.868210 -60.619069 -59.480873 14.932328 -19.330106 -47.078035 -7.228422 -4.015823 -2.150417 1.127510 -14.852853 2.549015 -96.992324 -62.085432 63.607512 -14.550258 -3.532489 20.345600 3.145357 -47.235585 -3.959211 -11.066166 68.281960 -14.626889 5.640069 23.126653 2.466391 -1.010036 -16.047342 6.496232 -8.455481 -44.982601 1.699707 31.572792 70.946876 34.603681 -14.717702 1.250428 -5.217563 0.182088 0.214418 0.052011
-223.331689 57.501877 135.282059 179.181726 -28.646701 -1.860795 0.462167 19.154866 1.831067 0.009755 2.268486 0.224427 0.020673 3.739695 0.370361 0.340368 16.515513 1.655095 0.090885 13.630791 0.649028 -0.084407 -10.480479 1.189547 3.152938 -0.933305 -1.446590 12.408201 -20.738715 -20.120947 103.046081 -60.861500 -59.986151 14.815525 -19.142212 -47.041622 -7.244455 -3.956710 -2.114644 1.309936 -14.863821 2.470175 -97.451844 -62.556096 63.909740 -14.630071 -3.521903 19.995277 3.200859 -47.226846 -4.015775 -11.030817 68.286254 -14.580427 5.661380 23.149582 2.498930 -1.022552 -16.066942 6.494357 -8.466336 -44.979122 1.694441 31.545701 70.963693 34.562925 -14.700864 1.257404 -5.210523 0.166881 0.211896 0.054843
